PathFileType	4	(X/Y/Z)	OpenSim_Sub03_CSStiffKnee_Accel.trc
DataRate	CameraRate	NumFrames	NumMarkers	Units	OrigDataRate	OrigDataStartFrame	OrigNumFrames
100	100	42	8	m	100	1	3637
Frame#	Time	torso_imu_offset_imu	pelvis_imu_offset_imu	tibia_r_imu_offset_imu	femur_r_imu_offset_imu	tibia_l_imu_offset_imu	femur_l_imu_offset_imu	toes_r_imu_offset_imu	toes_l_imu_offset_imu
				X1	Y1	Z1	X2	Y2	Z2	X3	Y3	Z3	X4	Y4	Z4	X5	Y5	Z5	X6	Y6	Z6	X7	Y7	Z7	X8		Y8	Z8	

1	0	9.47773000	0.96418200	5.34645600	9.65726800	-0.39550200	2.31528600	9.80048300	1.11445100	1.22897300	9.83967000	-0.57398500	1.58461000	9.79215400	-0.50499100	0.46812800	9.78031300	-0.20713800	-1.06736200	5.98327400	-1.71061000	7.83345200	5.48500400	0.94803300	10.86177200
2	0.01000000	9.47077300	1.00706600	5.30725600	9.70299900	-0.39214200	2.37765500	9.86285600	1.14074200	1.21700200	9.81703100	-0.58446100	1.58371700	9.81064200	-0.43407900	0.44442500	9.78842800	-0.23678000	-0.99615600	5.95704300	-1.68881200	7.84097300	5.47913000	0.92519900	10.81312100
3	0.02000000	9.45940900	0.99272600	5.32564400	9.69547300	-0.39282300	2.35460800	9.81103000	1.12418800	1.21026200	9.80777100	-0.56298600	1.58093700	9.80217600	-0.52107700	0.45512300	9.72679900	-0.20409600	-1.09260700	6.00013100	-1.68346300	7.80939600	5.49832800	0.91783400	10.80336500
4	0.03000000	9.44824200	0.96863500	5.30307400	9.69547600	-0.39247000	2.35465400	9.82781900	1.15569400	1.27345200	9.80761300	-0.56380400	1.58162000	9.79160400	-0.50264200	0.42895400	9.75652100	-0.20440600	-1.06196200	5.97227400	-1.67397700	7.84887000	5.46546500	0.91660300	10.85516600
5	0.04000000	9.43656300	0.95478900	5.32190700	9.69622100	-0.36790600	2.35314700	9.83222300	1.12250200	1.22322600	9.78977000	-0.57916000	1.53267100	9.82061200	-0.45043600	0.43241800	9.74161300	-0.16488500	-1.02691400	5.99393900	-1.71902800	7.81540700	5.48662400	0.93160500	10.83523500
6	0.05000000	9.41383700	0.92826200	5.35821200	9.63333700	-0.38731200	2.40026000	9.83660800	1.08919200	1.17320800	9.79153500	-0.52281500	1.55202700	9.78027200	-0.41740900	0.44976600	9.73711000	-0.18287700	-1.04237100	5.96304500	-1.73135800	7.82807100	5.46422300	0.93808700	10.84667700
7	0.06000000	9.40444400	0.93824300	5.32783000	9.63557700	-0.31416500	2.39562200	9.85298500	1.14342600	1.18730900	9.79139200	-0.52288200	1.55290300	9.78094600	-0.48408700	0.40517400	9.74168400	-0.16429000	-1.02633500	5.98389500	-1.68223300	7.83014300	5.48368200	0.93110500	10.83676700
8	0.07000000	9.45302200	0.90163800	5.26577600	9.65199900	-0.29224200	2.36354700	9.79937200	1.21378800	1.17353100	9.78215600	-0.50064500	1.55031000	9.82103500	-0.48470000	0.43401000	9.74171900	-0.16381500	-1.02608000	5.98331200	-1.68318900	7.83038300	5.48207000	0.93058800	10.83762700
9	0.08000000	9.42286700	0.93944200	5.34454500	9.62879200	-0.29137300	2.37091700	9.83982300	1.11655100	1.16674200	9.79114500	-0.52352200	1.55424900	9.80075800	-0.45204700	0.46505400	9.78747500	-0.21883100	-1.01278100	5.96814400	-1.68825400	7.79117800	5.48049900	0.92966000	10.83850100
10	0.09000000	9.37231700	0.90166400	5.25273600	9.63564200	-0.31474600	2.39528400	9.81622900	1.07975800	1.16383500	9.78860100	-0.52132600	1.57905400	9.79074800	-0.46825100	0.43731400	9.74524500	-0.21073400	-0.97123700	5.97904400	-1.70625900	7.80424800	5.47896800	0.92883000	10.83934700
11	0.10000000	9.40427300	0.95983700	5.28343400	9.62144800	-0.29292800	2.34699800	9.81071600	1.01088400	1.18190500	9.73431200	-0.51801700	1.57394300	9.77156400	-0.50479000	0.46502900	9.74384700	-0.11210500	-1.04773900	5.97827400	-1.70685600	7.80470700	5.49846300	0.92138900	10.82947300
12	0.11000000	9.39280300	0.93684800	5.26121200	9.61934900	-0.36600900	2.35105300	9.80378300	1.00688900	1.24183100	9.77735400	-0.55657300	1.55824500	9.81180100	-0.53815600	0.44979900	9.71992200	-0.10903200	-1.04358100	5.98045100	-1.68590800	7.83198400	5.48255600	0.89086400	10.82093500
13	0.12000000	9.40271700	0.95959900	5.28624500	9.65773400	-0.36468800	2.38942500	9.77599600	1.00150100	1.28892100	9.78636000	-0.57944700	1.56202600	9.78082200	-0.45494100	0.49759300	9.77926500	-0.10941900	-0.98314600	5.97946500	-1.68640800	7.83262900	5.48696700	0.93491900	10.86123200
14	0.13000000	9.38249000	0.94735400	5.23245000	9.62710900	-0.36460400	2.37327600	9.81016400	1.04644900	1.27468700	9.78624400	-0.58019300	1.56247700	9.77027900	-0.43661900	0.47127800	9.76904400	-0.12968700	-1.03284500	5.95315500	-1.66460300	7.84020900	5.46046500	0.91874600	10.82310800
15	0.14000000	9.41215700	0.97236600	5.27166100	9.63543100	-0.33903300	2.39468500	9.82828900	1.01283400	1.29646800	9.80861000	-0.57172300	1.56440000	9.78037200	-0.45292300	0.45689600	9.74177200	-0.16120700	-1.02598700	5.99110300	-1.69333400	7.81419100	5.47969800	0.91133200	10.81337700
16	0.15000000	9.42247500	0.98527100	5.25549900	9.65872600	-0.34010500	2.38692100	9.80440500	0.99892600	1.24334700	9.82183100	-0.54094600	1.56326300	9.80095200	-0.48770700	0.46978400	9.76696500	-0.17978500	-1.01100600	5.94641300	-1.70053600	7.84650600	5.46964100	0.92544100	10.84434600
17	0.16000000	9.42180500	0.98521800	5.25671100	9.65129800	-0.34068600	2.36345200	9.87430800	1.00318100	1.22178900	9.78809700	-0.58593800	1.54075700	9.80091500	-0.48775200	0.47050100	9.73520700	-0.22914200	-1.01959300	5.94077400	-1.73559200	7.85213900	5.47632000	0.91062000	10.81514800
18	0.17000000	9.43930700	0.94419800	5.23893300	9.67383900	-0.36571500	2.35733200	9.86096200	0.97855500	1.20007300	9.81034500	-0.57834200	1.54313600	9.81044100	-0.46986000	0.45785200	9.76039300	-0.24730300	-1.00477600	6.01426100	-1.71961600	7.80805100	5.50803900	0.91148500	10.82486600
19	0.18000000	9.42978500	0.96482400	5.24918200	9.68210100	-0.33977100	2.37903000	9.80003300	1.07021400	1.19652300	9.79661900	-0.61191900	1.54630900	9.81150700	-0.53907100	0.45509000	9.77983000	-0.26786500	-1.02446200	5.97184300	-1.71467700	7.80791600	5.48558800	0.91796400	10.83629100
20	0.19000000	9.47810600	0.94848000	5.26860000	9.67319300	-0.38911500	2.35863800	9.83182100	1.03629700	1.29067600	9.80540100	-0.63625400	1.55078400	9.79108000	-0.53652100	0.39958500	9.76035600	-0.24658900	-1.00530700	5.97131300	-1.71615700	7.80799600	5.50477700	0.91086300	10.82657700
21	0.20000000	9.42920300	0.96439500	5.25030700	9.64852200	-0.43635600	2.36914300	9.83288000	0.99253300	1.20047900	9.78253300	-0.64768100	1.55076400	9.80132600	-0.52261500	0.47137200	9.73287100	-0.19543100	-1.05643000	5.94257300	-1.71683500	7.78814400	5.50310600	0.91055400	10.82745300
22	0.21000000	9.41885100	0.93152300	5.18570600	9.66488900	-0.41365300	2.33736100	9.85106700	0.93610400	1.27277100	9.78464000	-0.65230100	1.52786700	9.81086000	-0.50465800	0.45871300	9.76490900	-0.22746100	-0.98949700	5.97323900	-1.69776500	7.83492600	5.49299800	0.92496200	10.85840500
23	0.22000000	9.40767800	0.92794000	5.24388800	9.69627300	-0.38860300	2.35201200	9.86132000	0.94678800	1.25583500	9.78430600	-0.65442200	1.52910300	9.80013900	-0.45398100	0.47609600	9.78887600	-0.22956000	-0.99344400	5.97266900	-1.69927700	7.83503300	5.48952700	0.92472700	10.79941800
24	0.23000000	9.44864800	0.91218600	5.18884300	9.64906600	-0.41015000	2.36871600	9.77655400	1.00427400	1.24884200	9.75727600	-0.64816600	1.47752800	9.81982400	-0.45210800	0.44827600	9.74096000	-0.22384400	-0.98571700	5.97202200	-1.70105700	7.83514000	5.47754200	0.91684800	10.84045500
25	0.24000000	9.42899800	0.92887000	5.25548900	9.65718500	-0.41275700	2.31532400	9.80798700	0.99370400	1.29330000	9.75865900	-0.66460300	1.55468700	9.78119000	-0.52202800	0.45959100	9.74309300	-0.17326800	-1.00694100	5.96547700	-1.74588900	7.78154600	5.45501900	0.92297000	10.85191900
26	0.25000000	9.44978800	0.93002000	5.26800100	9.66528800	-0.38650900	2.33767800	9.80167500	0.97179900	1.21240100	9.76077700	-0.66833200	1.53215000	9.79109300	-0.50583200	0.48894900	9.75328200	-0.15230600	-0.95753800	5.96069800	-1.77196200	7.84614600	5.49534700	0.90915600	10.83151100
27	0.26000000	9.43976500	0.91587700	5.28384400	9.65774300	-0.38689100	2.31475800	9.81647500	0.92798900	1.19370200	9.76950300	-0.69208200	1.53698500	9.77103800	-0.50532600	0.47538800	9.76136800	-0.17683200	-1.04496700	5.99533700	-1.72833600	7.82862900	5.49380400	0.90903800	10.83230300
28	0.27000000	9.46290100	0.94074400	5.24721400	9.66589200	-0.36071700	2.33688300	9.82263100	0.97010100	1.22671600	9.75764400	-0.66831700	1.55945800	9.82035900	-0.48538100	0.44831400	9.78655500	-0.19498900	-1.03021500	5.97800800	-1.74569700	7.82169500	5.44818400	0.90035600	10.86452300
29	0.28000000	9.46582200	0.97323400	5.23771500	9.65694400	-0.40973100	2.31686600	9.80494000	0.97773900	1.25590800	9.76228700	-0.67422700	1.51262600	9.81980000	-0.45050300	0.45041700	9.73417600	-0.20725100	-1.03775600	5.96561000	-1.72915100	7.80948900	5.47997800	0.92323700	10.80439400
30	0.29000000	9.45325800	0.93523400	5.30310900	9.66504500	-0.38335000	2.33920600	9.85697000	0.99165400	1.26364200	9.77048400	-0.63869700	1.56065600	9.81023000	-0.46826400	0.46397900	9.76031800	-0.15897100	-1.06235000	5.95320400	-1.71257700	7.79729700	5.48864400	0.90883500	10.83493500
31	0.30000000	9.45567500	0.96773500	5.29453400	9.64170000	-0.38127700	2.34732300	9.82994400	0.94570900	1.21995700	9.80674400	-0.65789100	1.51831900	9.81979200	-0.44985800	0.45123300	9.73991100	-0.20391200	-1.00357300	5.94824900	-1.73797300	7.86215400	5.47005200	0.95971600	10.82611100
32	0.31000000	9.45466400	0.92353400	5.26038800	9.66480500	-0.38127800	2.34053500	9.86110600	0.95850400	1.21497700	9.77239000	-0.64348200	1.53916400	9.81020700	-0.46793500	0.46479300	9.79229900	-0.19038300	-0.99618800	5.99145300	-1.73266700	7.83064500	5.48739800	0.93079000	10.82646500
33	0.32000000	9.50633900	0.93039300	5.22884000	9.64904200	-0.37816900	2.37149300	9.82862900	1.00886900	1.26370000	9.77871200	-0.66441000	1.56769300	9.82059400	-0.51622400	0.40604900	9.74884700	-0.16629400	-0.97317800	5.96851100	-1.68952300	7.86475000	5.47144700	0.90078000	10.81785900
34	0.33000000	9.46864700	0.96857000	5.23347200	9.64908600	-0.37738900	2.37143600	9.81089300	1.01702100	1.29277100	9.81001200	-0.67838000	1.57373800	9.78085200	-0.51701200	0.42088400	9.77163800	-0.15216200	-0.99532100	5.97350400	-1.75135300	7.82387100	5.47576200	0.94516200	10.85815200
35	0.34000000	9.40921500	0.97096000	5.23190800	9.64166500	-0.37780300	2.34802600	9.80461100	0.99575800	1.21150000	9.76462100	-0.69793700	1.57251000	9.82011700	-0.45058100	0.49484200	9.76144300	-0.17185500	-1.04509800	5.97784800	-1.71899600	7.81873900	5.48464600	0.95256900	10.81877800
36	0.35000000	9.40118500	0.98086200	5.19916500	9.64111100	-0.40135700	2.34906000	9.83415500	0.88812400	1.22270800	9.76430800	-0.69909300	1.57394000	9.77072000	-0.49991900	0.43653700	9.74434300	-0.18243500	-0.98922700	5.96053300	-1.73658900	7.81171400	5.46848000	0.92232600	10.81029600
37	0.36000000	9.44894400	0.92990000	5.22409600	9.61051300	-0.40050700	2.33294400	9.79249400	0.86204400	1.24812900	9.78246400	-0.67352600	1.52537700	9.81022100	-0.46588800	0.46654400	9.76259800	-0.18637300	-1.02739500	5.97146600	-1.75517300	7.82457100	5.46479200	0.89979100	10.82130500
38	0.37000000	9.47856500	0.91972400	5.26817700	9.65642700	-0.42615700	2.31901700	9.82230100	0.94019600	1.28548400	9.76610300	-0.70408900	1.55305300	9.82095300	-0.51622100	0.45003500	9.74308800	-0.16487800	-1.00840100	5.97580000	-1.72256500	7.81951800	5.48612100	0.91496500	10.80145600
39	0.38000000	9.47988900	0.90827700	5.22546300	9.63466000	-0.37548700	2.32333300	9.82523900	0.95073800	1.32762000	9.78170400	-0.67609300	1.52910600	9.82063700	-0.51357500	0.40837100	9.74396300	-0.09781700	-1.04809500	5.96352700	-1.70649700	7.80713300	5.49694900	0.92266500	10.82179200
40	0.39000000	9.49914000	0.86559100	5.20454900	9.61160200	-0.37339100	2.33027400	9.83545900	0.96305200	1.31007600	9.78784400	-0.69765900	1.55820600	9.83982400	-0.44699900	0.46847000	9.76462700	-0.13411000	-1.04938500	5.90721400	-1.69675000	7.82662100	5.45158400	0.93563500	10.78402100
41	0.40000000	9.44937400	0.85644600	5.23313100	9.64933900	-0.39568600	2.37006100	9.91240400	0.94844600	1.28005000	9.80097300	-0.66753000	1.55811100	9.81978600	-0.44645600	0.45472700	9.77272800	-0.16320500	-0.97883800	5.89941500	-1.74455500	7.86424700	5.47044400	0.90687300	10.84430000
42	0.41000000	9.49031900	0.84956000	5.21851100	9.67275600	-0.39591300	2.36194800	9.86016600	0.93394000	1.27437900	9.85972400	-0.67802800	1.51769000	9.78812400	-0.35830700	0.41754700	9.74309100	-0.16161500	-1.00890000	5.96844400	-1.76318700	7.82507500	5.43957900	0.94992900	10.81586900
